{
  "accessors": [
    {
      "bufferView": 1,
      "componentType": 5126,
      "count": 24461,
      "max": [
        5.84250020980835,
        1.8530999422073364,
        20.684099197387695
      ],
      "min": [
        -5.84250020980835,
        -1.9170000553131104,
        -0.05660000070929527
      ],
      "type": "VEC3"
    },
    {
      "bufferView": 1,
      "byteOffset": 293532,
      "componentType": 5126,
      "count": 24461,
      "max": [
        0.9999244213104248,
        0.9999978542327881,
        0.9998210072517395
      ],
      "min": [
        -0.9999284744262695,
        -0.9999903440475464,
        -0.999925971031189
      ],
      "type": "VEC3"
    },
    {
      "bufferView": 0,
      "componentType": 5125,
      "count": 146754,
      "type": "SCALAR"
    }
  ],
  "asset": {
    "extras": {
      "author": "Alexand Maltsev (https://sketchfab.com/Kalmukovv)",
      "license": "CC-BY-4.0 (http://creativecommons.org/licenses/by/4.0/)",
      "source": "https://sketchfab.com/3d-models/man-a5e697695dbb4f9fb5cf06f7801179d6",
      "title": "Man"
    },
    "generator": "Sketchfab-12.68.0",
    "version": "2.0"
  },
  "bufferViews": [
    {
      "buffer": 0,
      "byteLength": 587016,
      "name": "floatBufferViews",
      "target": 34963
    },
    {
      "buffer": 0,
      "byteLength": 587064,
      "byteOffset": 587016,
      "byteStride": 12,
      "name": "floatBufferViews",
      "target": 34962
    }
  ],
  "buffers": [
    {
      "byteLength": 1174080,
      "uri": "scene.bin"
    }
  ],
  "materials": [
    {
      "doubleSided": true,
      "name": "default",
      "pbrMetallicRoughness": {
        "metallicFactor": 0.0,
        "roughnessFactor": 0.6
      }
    }
  ],
  "meshes": [
    {
      "name": "Object_0",
      "primitives": [
        {
          "attributes": {
            "NORMAL": 1,
            "POSITION": 0
          },
          "indices": 2,
          "material": 0,
          "mode": 4
        }
      ]
    }
  ],
  "nodes": [
    {
      "children": [
        1
      ],
      "matrix": [
        1.0,
        -2.8327693431939985e-16,
        -2.8327693431939995e-16,
        0.0,
        -2.832769343193999e-16,
        5.053215392444312e-16,
        -1.0,
        0.0,
        2.832769343193999e-16,
        1.0,
        5.053215392444312e-16,
        0.0,
        -2.9306967280502e-15,
        6.48653205269621e-31,
        -2.921274333544943e-15,
        1.0
      ],
      "name": "Sketchfab_model"
    },
    {
      "children": [
        2
      ],
      "name": "FinalBaseMesh.obj.cleaner.materialmerger.gles"
    },
    {
      "mesh": 0,
      "name": "Object_2"
    }
  ],
  "scene": 0,
  "scenes": [
    {
      "name": "Sketchfab_Scene",
      "nodes": [
        0
      ]
    }
  ]
}
