{
  "accessors": [
    {
      "bufferView": 2,
      "componentType": 5126,
      "count": 17278,
      "max": [
        0.44531869888305664,
        0.2276701033115387,
        1.2890989780426025
      ],
      "min": [
        -0.10187319666147232,
        -0.1959097981452942,
        0.5205928087234497
      ],
      "type": "VEC3"
    },
    {
      "bufferView": 2,
      "byteOffset": 207336,
      "componentType": 5126,
      "count": 17278,
      "max": [
        0.9997944235801697,
        0.9999995827674866,
        0.9997382760047913
      ],
      "min": [
        -0.999809205532074,
        -0.9999833106994629,
        -1.0
      ],
      "type": "VEC3"
    },
    {
      "bufferView": 3,
      "componentType": 5126,
      "count": 17278,
      "max": [
        0.999999463558197,
        0.9999496936798096,
        0.9999988079071045,
        1.0
      ],
      "min": [
        -0.9999983906745911,
        -0.9999507665634155,
        -0.9996629357337952,
        -1.0
      ],
      "type": "VEC4"
    },
    {
      "bufferView": 1,
      "componentType": 5126,
      "count": 17278,
      "max": [
        0.9994369745254517,
        0.9959602952003479
      ],
      "min": [
        0.0005630070227198303,
        0.0005630070227198303
      ],
      "type": "VEC2"
    },
    {
      "bufferView": 0,
      "componentType": 5125,
      "count": 86616,
      "type": "SCALAR"
    },
    {
      "bufferView": 2,
      "byteOffset": 414672,
      "componentType": 5126,
      "count": 8216,
      "max": [
        0.23286710679531097,
        0.17408649623394012,
        1.0811680555343628
      ],
      "min": [
        -0.14094120264053345,
        -0.15726280212402344,
        0.37140199542045593
      ],
      "type": "VEC3"
    },
    {
      "bufferView": 2,
      "byteOffset": 513264,
      "componentType": 5126,
      "count": 8216,
      "max": [
        1.0,
        1.0,
        1.0
      ],
      "min": [
        -1.0,
        -1.0,
        -1.0
      ],
      "type": "VEC3"
    },
    {
      "bufferView": 3,
      "byteOffset": 276448,
      "componentType": 5126,
      "count": 8216,
      "max": [
        1.0,
        1.0,
        1.0,
        1.0
      ],
      "min": [
        -1.0,
        -1.0,
        -1.0,
        -1.0
      ],
      "type": "VEC4"
    },
    {
      "bufferView": 1,
      "byteOffset": 138224,
      "componentType": 5126,
      "count": 8216,
      "max": [
        0.9975165128707886,
        0.9991216063499451
      ],
      "min": [
        0.0008785080281086266,
        0.0008785080281086266
      ],
      "type": "VEC2"
    },
    {
      "bufferView": 0,
      "byteOffset": 346464,
      "componentType": 5125,
      "count": 28962,
      "type": "SCALAR"
    },
    {
      "bufferView": 2,
      "byteOffset": 611856,
      "componentType": 5126,
      "count": 25518,
      "max": [
        0.4741489887237549,
        0.4184972047805786,
        1.5146479606628418
      ],
      "min": [
        -0.4219711124897003,
        -0.40160098671913147,
        -0.04086368903517723
      ],
      "type": "VEC3"
    },
    {
      "bufferView": 2,
      "byteOffset": 918072,
      "componentType": 5126,
      "count": 25518,
      "max": [
        1.0,
        1.0,
        1.0
      ],
      "min": [
        -1.0,
        -1.0,
        -1.0
      ],
      "type": "VEC3"
    },
    {
      "bufferView": 3,
      "byteOffset": 407904,
      "componentType": 5126,
      "count": 25518,
      "max": [
        1.0,
        1.0,
        1.0,
        1.0
      ],
      "min": [
        -1.0,
        -1.0,
        -1.0,
        1.0
      ],
      "type": "VEC4"
    },
    {
      "bufferView": 1,
      "byteOffset": 203952,
      "componentType": 5126,
      "count": 25518,
      "max": [
        0.9960938096046448,
        0.9951207041740417
      ],
      "min": [
        0.00390625,
        0.00390625
      ],
      "type": "VEC2"
    },
    {
      "bufferView": 0,
      "byteOffset": 462312,
      "componentType": 5125,
      "count": 85254,
      "type": "SCALAR"
    }
  ],
  "asset": {
    "extras": {
      "author": "lazarys (https://sketchfab.com/lazarys)",
      "license": "CC-BY-4.0 (http://creativecommons.org/licenses/by/4.0/)",
      "source": "https://sketchfab.com/3d-models/medical-ventilator-a03a99fab9314aab96fd41ec69acf1a3",
      "title": "Medical Ventilator"
    },
    "generator": "Sketchfab-16.59.0",
    "version": "2.0"
  },
  "bufferViews": [
    {
      "buffer": 0,
      "byteLength": 803328,
      "name": "floatBufferViews",
      "target": 34963
    },
    {
      "buffer": 0,
      "byteLength": 408096,
      "byteOffset": 803328,
      "byteStride": 8,
      "name": "floatBufferViews",
      "target": 34962
    },
    {
      "buffer": 0,
      "byteLength": 1224288,
      "byteOffset": 1211424,
      "byteStride": 12,
      "name": "floatBufferViews",
      "target": 34962
    },
    {
      "buffer": 0,
      "byteLength": 816192,
      "byteOffset": 2435712,
      "byteStride": 16,
      "name": "floatBufferViews",
      "target": 34962
    }
  ],
  "buffers": [
    {
      "byteLength": 3251904,
      "uri": "scene.bin"
    }
  ],
  "extensionsUsed": [
    "KHR_materials_specular"
  ],
  "images": [
    {
      "uri": "textures/Other_baseColor.png"
    },
    {
      "uri": "textures/Other_metallicRoughness.png"
    },
    {
      "uri": "textures/Other_normal.png"
    },
    {
      "uri": "textures/Base_baseColor.png"
    },
    {
      "uri": "textures/Base_metallicRoughness.png"
    },
    {
      "uri": "textures/Base_normal.png"
    },
    {
      "uri": "textures/Tubes_baseColor.jpeg"
    },
    {
      "uri": "textures/Tubes_metallicRoughness.png"
    },
    {
      "uri": "textures/Tubes_normal.png"
    }
  ],
  "materials": [
    {
      "alphaMode": "BLEND",
      "doubleSided": true,
      "extensions": {
        "KHR_materials_specular": {
          "specularColorFactor": [
            1.0,
            1.0,
            1.0
          ],
          "specularFactor": 0.7603832697394887
        }
      },
      "name": "Other",
      "normalTexture": {
        "index": 2
      },
      "occlusionTexture": {
        "index": 1
      },
      "pbrMetallicRoughness": {
        "baseColorTexture": {
          "index": 0
        },
        "metallicRoughnessTexture": {
          "index": 1
        }
      }
    },
    {
      "alphaMode": "BLEND",
      "doubleSided": true,
      "extensions": {
        "KHR_materials_specular": {
          "specularColorFactor": [
            1.0,
            1.0,
            1.0
          ],
          "specularFactor": 0.6201923663005449
        }
      },
      "name": "Base",
      "normalTexture": {
        "index": 5
      },
      "occlusionTexture": {
        "index": 4
      },
      "pbrMetallicRoughness": {
        "baseColorTexture": {
          "index": 3
        },
        "metallicRoughnessTexture": {
          "index": 4
        }
      }
    },
    {
      "doubleSided": true,
      "name": "Tubes",
      "normalTexture": {
        "index": 8
      },
      "occlusionTexture": {
        "index": 7
      },
      "pbrMetallicRoughness": {
        "baseColorTexture": {
          "index": 6
        },
        "metallicFactor": 0.0,
        "metallicRoughnessTexture": {
          "index": 7
        }
      }
    }
  ],
  "meshes": [
    {
      "name": "Tubes-material",
      "primitives": [
        {
          "attributes": {
            "NORMAL": 1,
            "POSITION": 0,
            "TANGENT": 2,
            "TEXCOORD_0": 3
          },
          "indices": 4,
          "material": 2,
          "mode": 4
        }
      ]
    },
    {
      "name": "Base-material",
      "primitives": [
        {
          "attributes": {
            "NORMAL": 6,
            "POSITION": 5,
            "TANGENT": 7,
            "TEXCOORD_0": 8
          },
          "indices": 9,
          "material": 1,
          "mode": 4
        }
      ]
    },
    {
      "name": "Other-material",
      "primitives": [
        {
          "attributes": {
            "NORMAL": 11,
            "POSITION": 10,
            "TANGENT": 12,
            "TEXCOORD_0": 13
          },
          "indices": 14,
          "material": 0,
          "mode": 4
        }
      ]
    }
  ],
  "nodes": [
    {
      "children": [
        1
      ],
      "matrix": [
        1.0,
        0.0,
        0.0,
        0.0,
        0.0,
        2.220446049250313e-16,
        -1.0,
        0.0,
        0.0,
        1.0,
        2.220446049250313e-16,
        0.0,
        0.0,
        0.0,
        0.0,
        1.0
      ],
      "name": "Sketchfab_model"
    },
    {
      "children": [
        2,
        4,
        6
      ],
      "name": "Collada visual scene group"
    },
    {
      "children": [
        3
      ],
      "matrix": [
        1.0,
        0.0,
        0.0,
        0.0,
        0.0,
        1.0,
        0.0,
        0.0,
        0.0,
        0.0,
        1.0,
        0.0,
        0.0,
        0.0,
        0.04153442,
        1.0
      ],
      "name": "Tubes"
    },
    {
      "mesh": 0,
      "name": "Tubes-material"
    },
    {
      "children": [
        5
      ],
      "matrix": [
        1.0,
        0.0,
        0.0,
        0.0,
        0.0,
        1.0,
        0.0,
        0.0,
        0.0,
        0.0,
        1.0,
        0.0,
        0.0,
        0.0,
        0.04153442,
        1.0
      ],
      "name": "Base"
    },
    {
      "mesh": 1,
      "name": "Base-material"
    },
    {
      "children": [
        7
      ],
      "matrix": [
        1.0,
        0.0,
        0.0,
        0.0,
        0.0,
        1.0,
        0.0,
        0.0,
        0.0,
        0.0,
        1.0,
        0.0,
        0.0,
        0.0,
        0.04153442,
        1.0
      ],
      "name": "Other"
    },
    {
      "mesh": 2,
      "name": "Other-material"
    }
  ],
  "samplers": [
    {
      "magFilter": 9729,
      "minFilter": 9987,
      "wrapS": 10497,
      "wrapT": 10497
    }
  ],
  "scene": 0,
  "scenes": [
    {
      "name": "Sketchfab_Scene",
      "nodes": [
        0
      ]
    }
  ],
  "textures": [
    {
      "sampler": 0,
      "source": 0
    },
    {
      "sampler": 0,
      "source": 1
    },
    {
      "sampler": 0,
      "source": 2
    },
    {
      "sampler": 0,
      "source": 3
    },
    {
      "sampler": 0,
      "source": 4
    },
    {
      "sampler": 0,
      "source": 5
    },
    {
      "sampler": 0,
      "source": 6
    },
    {
      "sampler": 0,
      "source": 7
    },
    {
      "sampler": 0,
      "source": 8
    }
  ]
}
